<?xml version="1.0" encoding="UTF-8" standalone="no"?>
<!DOCTYPE svg PUBLIC "-//W3C//DTD SVG 1.1//EN" "http://www.w3.org/Graphics/SVG/1.1/DTD/svg11.dtd">
<svg width="100%" height="100%" viewBox="0 0 32 32" version="1.1" xmlns="http://www.w3.org/2000/svg" xmlns:xlink="http://www.w3.org/1999/xlink" xml:space="preserve" xmlns:serif="http://www.serif.com/" style="fill-rule:evenodd;clip-rule:evenodd;stroke-linejoin:round;stroke-miterlimit:2;">
    <g>
        <clipPath id="_clip1">
            <rect x="2.095" y="6.667" width="28.345" height="20.127"/>
        </clipPath>
        <g clip-path="url(#_clip1)">
            <path d="M16.792,31.011L16.776,31.013L16.681,31.06L16.655,31.065L16.636,31.06L16.541,31.012C16.527,31.008 16.516,31.011 16.509,31.02L16.504,31.033L16.481,31.604L16.488,31.631L16.501,31.648L16.64,31.747L16.66,31.752L16.676,31.747L16.815,31.648L16.831,31.627L16.836,31.604L16.813,31.035C16.81,31.02 16.803,31.012 16.792,31.011M17.144,30.86L17.125,30.863L16.88,30.987L16.867,31L16.863,31.015L16.887,31.588L16.893,31.604L16.904,31.615L17.172,31.737C17.189,31.742 17.202,31.738 17.211,31.727L17.216,31.708L17.171,30.889C17.166,30.872 17.157,30.863 17.144,30.86M16.191,30.863C16.179,30.855 16.163,30.859 16.155,30.871L16.147,30.889L16.101,31.708C16.102,31.724 16.11,31.735 16.124,31.74L16.144,31.737L16.412,31.613L16.425,31.603L16.429,31.588L16.453,31.015L16.449,30.999L16.436,30.985L16.191,30.863Z" style="fill:none;"/>
            <path d="M11.601,7.667C12.371,6.333 14.295,6.333 15.065,7.667L19.732,15.749L20.935,13.667C21.704,12.333 23.628,12.333 24.399,13.667L30.172,23.667C30.348,23.971 30.44,24.316 30.44,24.667C30.44,25.764 29.537,26.667 28.44,26.667L22.667,26.667L22.667,26.664L22.571,26.667L4.096,26.667C4.096,26.667 4.095,26.667 4.095,26.667C2.998,26.667 2.095,25.764 2.095,24.667C2.095,24.316 2.187,23.971 2.363,23.667L11.601,7.667ZM10.388,15.101L11.333,15.731L12.593,14.891C13.04,14.592 13.626,14.592 14.073,14.891L15.333,15.731L16.279,15.101L13.333,10L10.388,15.101Z"/>
        </g>
    </g>
</svg>
